/usr/bin/ffmpeg -hide_banner -y -y -r 24 -start_number 0 -start_number_range 1 -i /home/nexus935115/OneDrive_fire5kirby/Pictures/Art/Projects/Ant/Walk/frame%04d.png -i /home/nexus935115/OneDrive_fire5kirby/Pictures/Art/Projects/Ant/Walk/KritaTempPalettegen_%06d.png -lavfi [0:v][1:v]paletteuse=dither=sierra2_4a:diff_mode=none -f gif -loop 0 -gifflags +transdiff /home/nexus935115/OneDrive_fire5kirby/Pictures/Art/Projects/Ant/Walk/anttestanim.gif
=====================================================
Input #0, image2, from '/home/nexus935115/OneDrive_fire5kirby/Pictures/Art/Projects/Ant/Walk/frame%04d.png':
  Duration: 00:00:00.64, start: 0.000000, bitrate: N/A
  Stream #0:0: Video: png, rgba64be(pc, gbr/unknown/unknown), 381x240 [SAR 9448:9448 DAR 127:80], 25 fps, 25 tbr, 25 tbn
Input #1, image2, from '/home/nexus935115/OneDrive_fire5kirby/Pictures/Art/Projects/Ant/Walk/KritaTempPalettegen_%06d.png':
  Duration: 00:00:00.04, start: 0.000000, bitrate: N/A
  Stream #1:0: Video: png, rgba(pc, gbr/unknown/unknown), 16x16 [SAR 1:1 DAR 1:1], 25 fps, 25 tbr, 25 tbn
Stream mapping:
  Stream #0:0 (png) -> paletteuse
  Stream #1:0 (png) -> paletteuse
  paletteuse:default -> Stream #0:0 (gif)
Press [q] to stop, [?] for help
[in#0/image2 @ 0x607736cbb700] Thread message queue blocking; consider raising the thread_queue_size option (current value: 8)
Output #0, gif, to '/home/nexus935115/OneDrive_fire5kirby/Pictures/Art/Projects/Ant/Walk/anttestanim.gif':
  Metadata:
    encoder         : Lavf60.16.100
  Stream #0:0: Video: gif, pal8(pc, gbr/unknown/unknown, progressive), 381x240 [SAR 1:1 DAR 127:80], q=2-31, 200 kb/s, 24 fps, 100 tbn
    Metadata:
      encoder         : Lavc60.31.102 gif
frame=    0 fps=0.0 q=-0.0 size=       0kB time=00:00:00.00 bitrate=N/A speed=   0x    [out#0/gif @ 0x607736d56980] video:190kB audio:0kB subtitle:0kB other streams:0kB global headers:0kB muxing overhead: 0.010268%
frame=   16 fps=0.0 q=-0.0 Lsize=     190kB time=00:00:00.62 bitrate=2493.5kbits/s speed=8.44x    
